inDegrees=yes
name=ik_lifting_orientations
DataType=double
version=3
OpenSimVersion=4.5-2024-01-10-34fd6af
endheader
time	pelvis_tilt	pelvis_list	pelvis_rotation	pelvis_tx	pelvis_ty	pelvis_tz	hip_flexion_r	hip_adduction_r	hip_rotation_r	knee_angle_r	knee_angle_r_beta	ankle_angle_r	subtalar_angle_r	mtp_angle_r	hip_flexion_l	hip_adduction_l	hip_rotation_l	knee_angle_l	knee_angle_l_beta	ankle_angle_l	subtalar_angle_l	mtp_angle_l	lumbar_extension	lumbar_bending	lumbar_rotation	arm_flex_r	arm_add_r	arm_rot_r	elbow_flex_r	pro_sup_r	wrist_flex_r	wrist_dev_r	arm_flex_l	arm_add_l	arm_rot_l	elbow_flex_l	pro_sup_l	wrist_flex_l	wrist_dev_l
0.02	-0.001623803712797433	-0.0007420256863114851	-90.15256286168918	0	0.9399999998679526	0	45.0279014561341	-11.50581520257833	0	59.8512878147004	1.044602033925284	-5.715859529061444	0	0	45.0279014561341	-11.50581520257833	0	59.8512878147004	1.044602033925284	-5.715859529061444	0	0	-0.001458633659404124	0.0005725586714534005	-0.001160680679441946	-0.293580342551492	-0.06797254965119047	-0.007298898312603028	0.6133360747229729	2.917856990247103	0	0	0	-9.912367929242123	0	87.12216755188018	2.917856990247103	0	0
0.03	-0.003064118275898045	0.0004552713718554043	-90.15212487191356	0	0.9399999998679526	0	45.026673591203	-11.30147284245666	0	59.85646876876035	1.044692458632025	-5.595450498758102	0	0	45.026673591203	-11.30147284245666	0	59.85646876876035	1.044692458632025	-5.595450498758102	0	0	-0.001276413767280854	0.001145315733596101	0.1191396174907451	-0.2329315292797522	-0.05060531121901166	-0.1287430671379507	0.4908093751676835	2.827053710322599	0	0	0	-10.03005482508629	0	87.21171776796228	2.827053710322599	0	0
0.04	0.001495852611303965	-0.004253005282104461	-90.15446655873109	0	0.9399999998679526	0	45.02605035656767	-11.20723754068923	0	59.85912288663226	1.044738781727625	-5.541853080569655	0	0	45.02605035656767	-11.20723754068923	0	59.85912288663226	1.044738781727625	-5.541853080569655	0	0	-0.01078491561532742	0.002867354589317684	0.2397026347827927	-0.2290601767543475	-0.05861653493969473	-0.2445901825413265	0.4916942538585727	2.780365757831324	0	0	0	-10.09104730379248	0	87.25776153991497	2.780365757831324	0	0
0.05	0.00179726179710657	-0.004553929832297626	-90.15453249781849	0	0.9399999998679526	0	45.02543974905294	-11.11963618605829	0	59.86173649744211	1.044784397841623	-5.492988580288046	0	0	45.02543974905294	-11.11963618605829	0	59.86173649744211	1.044784397841623	-5.492988580288046	0	0	-0.01537209046140061	0.006702720610372396	0.3595863188142179	-0.2251204229084782	-0.06245655308264281	-0.3643960881745411	0.4920005896084249	2.734298336421829	0	0	0	-10.15149212509687	0	87.30319339454452	2.734298336421829	0	0
0.06	0.00154627774731597	-0.004412075556946289	-90.15439502713281	0	0.9399999998679526	0	45.02484787752076	-11.03891980113197	0	59.86428239764962	1.044828832182671	-5.448801659836487	0	0	45.02484787752076	-11.03891980113197	0	59.86428239764962	1.044828832182671	-5.448801659836487	0	0	-0.01523892177004513	0.007018957657518174	0.4796400894694577	-0.2250226352460685	-0.06190693965546113	-0.4845720620139367	0.4917774537427002	2.689337518735877	0	0	0	-10.2107340902044	0	87.34753395974795	2.689337518735877	0	0
0.07000000000000001	0.0001320901586414921	-0.0001764162671067237	-90.15440178407124	0	0.9399999998679526	0	45.02435050543409	-10.97651742013838	0	59.86643988306302	1.044866487406699	-5.415625771468481	0	0	45.02435050543409	-10.97651742013838	0	59.86643988306302	1.044866487406699	-5.415625771468481	0	0	-0.01018546210489548	0.008728185468487545	0.5501768586461807	-0.2497267550224881	-0.06758511197189718	-0.5699114288409189	0.5085515202163816	2.651109711573471	0	0	0	-10.26147148630386	0	87.38523446672147	2.651109711573471	0	0
0.08	0.007707808965738099	-0.02343683847154976	-90.12678492115292	0	0.9399999998679526	0	45.02358570432919	-10.88511938339529	0	59.86977338821072	1.044924668047158	-5.367887449707364	0	0	45.02358570432919	-10.88511938339529	0	59.86977338821072	1.044924668047158	-5.367887449707364	0	0	-0.06868038120770267	-0.01148761644895362	0.5208179227154438	-0.3021614774093253	-0.07414353835789678	-0.5848293680389027	0.6686741028068217	2.591929822819238	0	0	0	-10.34034551233959	0	87.44359810674349	2.591929822819238	0	0
0.09	-0.000653557942771123	0.03476020397925968	-90.10494965715219	0	0.9399999998679526	0	45.02290493902828	-10.80486780676535	0	59.87274418672948	1.044976518262724	-5.326228634516476	0	0	45.02290493902828	-10.80486780676535	0	59.87274418672948	1.044976518262724	-5.326228634516476	0	0	0.04671935977367661	0.01898179418366644	0.3757175208301303	-0.5554018219550374	-0.1556936515194042	-0.4938220593825893	1.030771815954014	2.539168175107281	0	0	0	-10.41073292026436	0	87.4956320379799	2.539168175107281	0	0
0.1	0.00760621299205947	0.006349193784332251	-90.10550259021961	0	0.9399999998679526	0	45.02239815688023	-10.74914881464936	0	59.87497126929758	1.045015388186251	-5.298055742298123	0	0	45.02239815688023	-10.74914881464936	0	59.87497126929758	1.045015388186251	-5.298055742298123	0	0	0.001985495179506348	-0.006647915351669925	0.4313588679748773	-0.2817096150302068	-0.07619383276557633	-0.5412940404377362	0.5164819646003765	2.499523616730428	0	0	0	-10.46392463424744	0	87.534729845511	2.499523616730428	0	0
0.11	0.007673619979537308	0.007762756670142229	-90.10673593598928	0	0.9399999998679526	0	45.02127677679327	-10.64883731476284	0	59.87999724136517	1.045103107946944	-5.251029185434631	0	0	45.02127677679327	-10.64883731476284	0	59.87999724136517	1.045103107946944	-5.251029185434631	0	0	0.002927283659575208	-0.003460489591316344	0.4314703924663134	-0.2805600305823062	-0.08098639330487373	-0.5394601310129575	0.5172928451878984	2.409300287515755	0	0	0	-10.587088119703	0	87.62370919736297	2.409300287515755	0	0
0.12	0.00611566606928882	0.0109311663654794	-90.10329418847225	0	0.9399999998679526	0	45.02088402548863	-10.6128412546558	0	59.88175645098544	1.04513381194705	-5.233878228937752	0	0	45.02088402548863	-10.6128412546558	0	59.88175645098544	1.04513381194705	-5.233878228937752	0	0	0.01123859319498405	-0.003960022104432388	0.4884788026742898	-0.2972107517320263	-0.08785989766294676	-0.6279062474383629	0.5335349726158816	2.37773048443461	0	0	0	-10.6301712277679	0	87.65484371758605	2.37773048443461	0	0
